<svg width="192" height="192" viewBox="0 0 192 192" fill="none" xmlns="http://www.w3.org/2000/svg">
<rect width="192" height="192" fill="#EE3643"/>
<path fill-rule="evenodd" clip-rule="evenodd" d="M45.3364 44.2107C41.9742 44.2107 41.6842 47.7602 41.6842 47.7602V74.6332C41.6842 79.7402 46.7257 79.5791 46.7257 79.5791H62.3678C65.7282 79.5791 65.1482 82.1754 65.1482 82.1754C65.1482 82.1754 60.8604 104.805 60.3984 108.634C59.9348 112.466 57.1544 114.903 57.1544 114.903C57.1544 114.903 53.4466 116.992 51.9409 117.804C50.4352 118.617 50.4352 122.526 50.4352 122.526H104.842V120.356C104.842 117.804 92.8392 114.903 88.3222 114.438C83.8034 113.976 84.7308 110.956 84.7308 110.956L86.5838 97.3798H91.7972L93.7666 83.6852H88.5532L89.128 79.5791H104.079C114.16 78.5337 121.263 71.617 121.263 71.617V50.7264C113.269 45.0402 100.718 44.2107 100.718 44.2107H45.3364ZM145.947 56.8423H169.371C170.37 56.8423 171.789 58.9526 171.789 61.2633C171.789 63.574 170.37 65.6844 169.371 65.6844H145.947C144.869 69.5361 142.349 72.0001 139.414 72.0001H126.316V50.5265H139.414C142.35 50.5265 144.869 52.9905 145.947 56.8423ZM53.811 150.316C50.5263 150.316 50.5263 146.748 50.5263 146.748V127.602H104.842V146.865C104.842 149.996 101.323 150.316 101.323 150.316H53.811ZM103.579 53.7133V53.6554C103.579 52.6292 102.797 51.7896 101.84 51.7896H49.7385C48.7823 51.7896 48 52.6292 48 53.6554V53.7133C48 54.7395 48.7823 55.5791 49.7385 55.5791H101.84C102.797 55.5791 103.579 54.7395 103.579 53.7133Z" fill="white"/>
</svg>
